{"title":"Sinister 2012 CAM XViD UNiQUE","uid":7771438,"size":1515596918,"categoryP":"video","categoryS":"movies","magnet":"?xt=urn:btih:31a8dd68fe7b24c00c5c8ebf2046779d1cb0a642&amp;dn=Sinister+2012+CAM+XViD+UNiQUE&amp;tr=udp%3A%2F%2Ftracker.openbittorrent.com%3A80&amp;tr=udp%3A%2F%2Fopen.demonii.com%3A1337&amp;tr=udp%3A%2F%2Ftracker.coppersurfer.tk%3A6969&amp;tr=udp%3A%2F%2Fexodus.desync.com%3A6969","seeders":1,"leechers":0,"uploader":"Acesn8s","files":4,"time":1351540714,"description":"[[.........why be the same as everyone else when YOU can be UNiQUE.........]]            \n\n\n\nFormat                                   : AVI\nFormat/Info                              : Audio Video Interleave\nFile size                                : 1.38 GiB\nDuration                                 : 1h 43mn\nOverall bit rate                         : 1 910 Kbps\nWriting application                      : VirtualDubMod 1.5.10.2 (build 2540/release)\nWriting library                          : VirtualDubMod build 2540/release\n\nVideo\nID                                       : 0\nFormat                                   : MPEG-4 Visual\nFormat profile                           : Advanced Simple@L5\nFormat settings, BVOP                    : 2\nFormat settings, QPel                    : No\nFormat settings, GMC                     : No warppoints\nFormat settings, Matrix                  : Default (H.263)\nMuxing mode                              : Packed bitstream\nCodec ID                                 : XVID\nCodec ID/Hint                            : XviD\nDuration                                 : 1h 43mn\nBit rate                                 : 1 771 Kbps\nWidth                                    : 598 pixels\nHeight                                   : 268 pixels\nDisplay aspect ratio                     : 2.25:1\nFrame rate                               : 29.970 fps\nColor space                              : YUV\nChroma subsampling                       : 4:2:0\nBit depth                                : 8 bits\nScan type                                : Progressive\nCompression mode                         : Lossy\nBits/(Pixel*Frame)                       : 0.369\nStream size                              : 1.28 GiB (93%)\nWriting library                          : XviD 64\n\nAudio\nID                                       : 1\nFormat                                   : MPEG Audio\nFormat version                           : Version 1\nFormat profile                           : Layer 3\nCodec ID                                 : 55\nCodec ID/Hint                            : MP3\nDuration                                 : 1h 43mn\nBit rate mode                            : Constant\nBit rate                                 : 128 Kbps\nChannel(s)                               : 2 channels\nSampling rate                            : 48.0 KHz\nCompression mode                         : Lossy\nStream size                              : 94.4 MiB (7%)\nAlignment                                : Split accross interleaves\nInterleave, duration                     : 33 ms (1.00 video frame)\nInterleave, preload duration             : 500 ms\n\n\n\n\n &lt;a href=&quot;\nhttp://www.imdb.com/title/tt1922777/&quot; rel=&quot;nofollow&quot; target=&quot;_NEW&quot;&gt;\nhttp://www.imdb.com/title/tt1922777/&lt;/a&gt;\n\n\n\n\nRatings: 7.2/10 from 9,729 users   Metascore: 53/100\nReviews: 139 user | 152 critic | 30 from Metacritic.com\n\nFound footage helps a true-crime author realize how and why a family was murdered in his new home, though his discoveries put his entire family in the path of a supernatural entity.\n\nDirector:\nScott Derrickson\nWriters:\nScott Derrickson (screenplay), C. Robert Cargill\nStars:\nEthan Hawke, Juliet Rylance and James Ransone | See full cast and crew\n\n\n\n\nSource Used\n\n\n\n\nHP...........Thanks\n\n\n\n2 samples 1 light ,1 dark check them both out the movie is dark ................Cropped resized (more for watching on pc and small tv) levels filter ,gaussian blur removed,sat,contrast and slight sharpen\n\n\nReal so so cam imho but you have been warned and its your choice and better audio is coming\n\n\n\n\nEnjoy\n &lt;a href=&quot;\nhttp://lookpic.com/O/i2/675/S0rZmyQG.png&quot; rel=&quot;nofollow&quot; target=&quot;_NEW&quot;&gt;\nhttp://lookpic.com/O/i2/675/S0rZmyQG.png&lt;/a&gt; &lt;a href=&quot;\nhttp://lookpic.com/O/i2/1306/1NiH3i2v.png&quot; rel=&quot;nofollow&quot; target=&quot;_NEW&quot;&gt;\nhttp://lookpic.com/O/i2/1306/1NiH3i2v.png&lt;/a&gt; &lt;a href=&quot;\nhttp://lookpic.com/O/i2/461/80znLxJk.png&quot; rel=&quot;nofollow&quot; target=&quot;_NEW&quot;&gt;\nhttp://lookpic.com/O/i2/461/80znLxJk.png&lt;/a&gt; &lt;a href=&quot;\nhttp://lookpic.com/O/i2/275/xDRry5za.png&quot; rel=&quot;nofollow&quot; target=&quot;_NEW&quot;&gt;\nhttp://lookpic.com/O/i2/275/xDRry5za.png&lt;/a&gt;\n","torrent":{"xt":"urn:btih:31a8dd68fe7b24c00c5c8ebf2046779d1cb0a642","amp;dn":"Sinister+2012+CAM+XViD+UNiQUE","amp;tr":["udp%3A%2F%2Ftracker.openbittorrent.com%3A80","udp%3A%2F%2Fopen.demonii.com%3A1337","udp%3A%2F%2Ftracker.coppersurfer.tk%3A6969","udp%3A%2F%2Fexodus.desync.com%3A6969"],"infoHash":"31a8dd68fe7b24c00c5c8ebf2046779d1cb0a642","infoHashBuffer":{"type":"Buffer","data":[49,168,221,104,254,123,36,192,12,92,142,191,32,70,119,157,28,176,166,66]},"announce":[],"urlList":[]}}